<svg height="52" version="1.1" width="19.5" xmlns="http://www.w3.org/2000/svg" xmlns:xlink="http://www.w3.org/1999/xlink" style="overflow: hidden; position: relative; left: -0.2px;" viewBox="292.75 200.19999771118165 19.5 52" preserveAspectRatio="xMinYMin" id="main_svg"><desc style="-webkit-tap-highlight-color: rgba(0, 0, 0, 0);">Created with Logotizer</desc><defs style="-webkit-tap-highlight-color: rgba(0, 0, 0, 0);"><linearGradient id="gradient_w6e2mu1nljjel1ce8fdjvc" x1="0.14054083470239093" y1="0" x2="0" y2="1" style="-webkit-tap-highlight-color: rgba(0, 0, 0, 0);"><stop offset="50%" stop-color="#000000" stop-opacity="1" style="-webkit-tap-highlight-color: rgba(0, 0, 0, 0);"></stop><stop offset="15%" stop-color="#ffa500" stop-opacity="1" style="-webkit-tap-highlight-color: rgba(0, 0, 0, 0);"></stop></linearGradient><linearGradient id="gradient_8zllrgl2jl6xszx1utcjhm" x1="0.14054083470239093" y1="0" x2="0" y2="1" style="-webkit-tap-highlight-color: rgba(0, 0, 0, 0);"><stop offset="50%" stop-color="#000000" stop-opacity="1" style="-webkit-tap-highlight-color: rgba(0, 0, 0, 0);"></stop><stop offset="15%" stop-color="#ffa500" stop-opacity="1" style="-webkit-tap-highlight-color: rgba(0, 0, 0, 0);"></stop></linearGradient></defs><path fill="url(#gradient_8zllrgl2jl6xszx1utcjhm)" stroke="none" d="M-7.78,-11.09L-1.06,-11.09L-1.06,-4.8Q-1.06,-4.22,-0.73,-3.96Q-0.39,-3.7,-0.01,-3.7Q0.43,-3.7,0.74,-4.03Q1.05,-4.37,1.05,-4.8L1.05,-10.03Q1.05,-10.8,0.79,-11.38Q0.52,-11.95,0.21,-12.24Q-0.1,-12.53,-0.73,-13.01L-5.72,-16.8Q-7.78,-18.34,-7.78,-21.22L-7.78,-27.6Q-7.78,-28.75,-7.64,-29.57Q-7.49,-30.38,-7.06,-31.42Q-6.63,-32.45,-5.55,-33.02Q-4.47,-33.6,-2.79,-33.6L2.78,-33.6Q4.46,-33.6,5.54,-33.02Q6.62,-32.45,7.05,-31.42Q7.48,-30.38,7.63,-29.57Q7.77,-28.75,7.77,-27.6L7.77,-23.18L1.05,-23.18L1.05,-28.8Q1.05,-29.23,0.74,-29.57Q0.43,-29.9,-0.01,-29.9Q-0.39,-29.9,-0.73,-29.64Q-1.06,-29.38,-1.06,-28.8L-1.06,-23.95Q-1.06,-23.04,-0.87,-22.49Q-0.68,-21.94,-0.49,-21.74Q-0.29,-21.55,0.43,-20.98L5.27,-16.99Q6.57,-15.94,7.17,-14.93Q7.77,-13.92,7.77,-12.29L7.77,-6Q7.77,-4.85,7.63,-4.03Q7.48,-3.22,7.05,-2.18Q6.62,-1.15,5.54,-0.58Q4.46,0,2.78,0L-2.79,0Q-4.47,0,-5.55,-0.58Q-6.63,-1.15,-7.06,-2.18Q-7.49,-3.22,-7.64,-4.03Q-7.78,-4.85,-7.78,-6L-7.78,-11.09Z" opacity="1" fill-opacity="1" transform="matrix(1,0,0,1,302.5,241.8)" style="-webkit-tap-highlight-color: rgba(0, 0, 0, 0); opacity: 1; fill-opacity: 1;" stroke-width="1"></path></svg>